<?xml version="1.0" encoding="utf-8"?>
<!-- Generator: Adobe Illustrator 18.0.0, SVG Export Plug-In . SVG Version: 6.00 Build 0)  -->
<!DOCTYPE svg PUBLIC "-//W3C//DTD SVG 1.1//EN" "http://www.w3.org/Graphics/SVG/1.1/DTD/svg11.dtd">
<svg version="1.1" id="レイヤー_1" xmlns="http://www.w3.org/2000/svg" xmlns:xlink="http://www.w3.org/1999/xlink" x="0px"
	 y="0px" viewBox="0 0 128 128" enable-background="new 0 0 128 128" xml:space="preserve">
<g>
	<g>
		<g>
			<path fill="#FCC21B" d="M64,17.4c-62,0-63.5,69.5-63.5,83.3c0,13.8,28.4,24.9,63.5,24.9c35.1,0,63.5-11.1,63.5-24.9
				C127.5,87,126,17.4,64,17.4z"/>
			<path fill="#2F2F2F" d="M30.4,73.7c-0.8,1.3-2.4,1.7-3.7,0.9c-1.3-0.8-1.7-2.4-1-3.7c0.2-0.3,4.6-7.6,14.3-7.6s14.1,7.3,14.3,7.6
				c0.8,1.3,0.3,2.9-1,3.7C52.9,74.9,52.5,75,52,75c-0.9,0-1.8-0.5-2.3-1.3c-0.1-0.2-3.1-4.9-9.6-4.9C33.5,68.8,30.6,73.5,30.4,73.7
				z"/>
			<path fill="#2F2F2F" d="M101.9,74.6c-0.4,0.2-0.9,0.4-1.4,0.4c-0.9,0-1.8-0.5-2.3-1.3c-0.1-0.2-3.1-4.9-9.6-4.9
				c-6.7,0-9.6,4.8-9.6,4.9c-0.8,1.3-2.4,1.7-3.7,1c-1.3-0.8-1.7-2.4-0.9-3.7c0.2-0.3,4.6-7.6,14.3-7.6s14.1,7.3,14.2,7.6
				C103.6,72.2,103.2,73.9,101.9,74.6z"/>
		</g>
		<path fill="#2F2F2F" d="M64.7,101.4c-19.6,0-28.2-10.3-28.5-10.7c-1.1-1.4-0.9-3.4,0.5-4.5s3.4-0.9,4.5,0.5
			C41.4,87,48.3,95,64.7,95c15.7,0,21.8-9.2,22.1-9.6c0.9-1.5,2.9-1.9,4.4-1c1.5,0.9,1.9,2.9,1,4.4C91.8,89.3,84.1,101.4,64.7,101.4
			z"/>
	</g>
</g>
</svg>
